<?xml version="1.0" encoding="utf-8"?>
<!-- Generator: Adobe Illustrator 22.1.0, SVG Export Plug-In . SVG Version: 6.00 Build 0)  -->
<svg version="1.1" id="Layer_1" xmlns="http://www.w3.org/2000/svg" xmlns:xlink="http://www.w3.org/1999/xlink" x="0px" y="0px"
	 viewBox="0 0 1600 183.9" style="enable-background:new 0 0 1600 183.9;" xml:space="preserve">
<style type="text/css">
	.st0{fill:#FFFFFF;}
	.st1{fill:#FF7345;}
</style>
<g>
	<path class="st0" d="M415.6,29.2c-37.1,0-65.8,27.8-65.8,62.7v0.3c0,34.9,28.3,62.4,65.5,62.4c37.1,0,65.8-27.8,65.8-62.7v-0.3
		C481.1,56.7,452.7,29.2,415.6,29.2 M440.5,92.3c0,14.1-9.6,26.8-24.9,26.8c-15.5,0-25.3-12.9-25.3-27.1v-0.3
		c0-14.1,9.6-26.8,24.9-26.8c15.5,0,25.3,12.9,25.3,27.2V92.3z M712,31.8H607.1c-1.7,0-3,1.4-3,3v27.9c0,1.7,1.4,3.1,3,3.1h32.4
		v83.2c0,1.7,1.4,3.1,3,3.1h34.1c1.7,0,3.1-1.4,3.1-3.1V65.8H712c1.7,0,3-1.4,3-3.1V34.9C715.1,33.2,713.7,31.8,712,31.8
		 M546.4,74.4c-12.7-2.4-16-4.5-16-7.7v-0.3c0-2.9,2.8-5,8.8-5c10.4,0,22.9,3.1,33.7,10.2c1.3,0.9,3.2,0.5,4.1-0.8l16.1-22.3
		c1-1.4,0.6-3.3-0.7-4.3c-13.5-9.7-30-14.6-51.8-14.6c-33.2,0-51,17.7-51,40.6v0.3c0,25.4,23.7,33.2,50.7,38.7
		c12.9,2.6,16.7,4.5,16.7,7.9v0.3c0,3.3-3.1,5.2-10.3,5.2c-13.3,0-27.4-3.7-39.9-12.5c-1.3-0.9-3-0.6-4,0.6l-17.7,21.1
		c-1.1,1.3-0.9,3.3,0.5,4.4c15.1,12.1,36.1,18.3,59.3,18.3c32.3,0,53.1-15.5,53.1-40.7v-0.3C597.7,89,577.1,80.1,546.4,74.4
		 M1528.3,31.8h-43c-1.7,0-3,1.4-3,3v114.2c0,1.7,1.4,3.1,3,3.1h41.6c48.6,0,73-25.3,73-60.8v-0.3
		C1600,55.4,1576.1,31.8,1528.3,31.8 M1559.4,92.1c0,17.4-11.9,24.9-30.2,24.9h-6.7V66.9h6.7c18.4,0,30.2,7.6,30.2,24.9V92.1z
		 M335.7,31.8h-34.1c-1.7,0-3.1,1.4-3.1,3v39.4h-36.8V34.9c0-1.7-1.4-3-3-3h-34.1c-1.7,0-3,1.4-3,3v114.2c0,1.7,1.4,3.1,3,3.1h34.1
		c1.7,0,3-1.4,3-3.1V109h36.8v40.1c0,1.7,1.4,3.1,3.1,3.1h34.1c1.7,0,3.1-1.4,3.1-3.1V34.9C338.8,33.2,337.4,31.8,335.7,31.8
		 M1109.4,31.8h-34.9c-1.4,0-2.5,0.9-2.9,2.2l-13.6,46.3c-0.8,2.9-4.9,2.9-5.8,0.1l-15.6-46.8c-0.4-1.2-1.6-2.1-2.9-2.1h-30.3
		c-1.3,0-2.5,0.8-2.9,2.1l-15.6,46.8c-0.9,2.8-5,2.8-5.8-0.1L965.2,34c-0.4-1.3-1.6-2.2-2.9-2.2h-35.6c-2.1,0-3.5,2-2.9,4l37.4,115
		c0.4,1.3,1.6,2.1,2.9,2.1h30.7c1.3,0,2.4-0.8,2.9-2l17.5-49.6c1-2.7,4.8-2.7,5.7,0l17.5,49.6c0.4,1.2,1.6,2,2.9,2h30.7
		c1.3,0,2.5-0.8,2.9-2.1l37.4-115C1112.9,33.8,1111.4,31.8,1109.4,31.8 M1469.6,117.7h-53.5V34.9c0-1.7-1.4-3-3.1-3H1379
		c-1.7,0-3,1.4-3,3v114.2c0,1.7,1.4,3.1,3,3.1h90.6c1.7,0,3.1-1.4,3.1-3.1v-28.3C1472.7,119.1,1471.3,117.7,1469.6,117.7 M828,119.1
		h-60.9v-3v0v-7v0v-3h55.7c1.7,0,3.1-1.4,3.1-3V80.1c0-1.7-1.4-3.1-3.1-3.1h-55.7v-3v0v-6.1v0v-3h60c1.7,0,3-1.4,3-3V34.9
		c0-1.7-1.4-3-3-3h-96.5c-1.7,0-3,1.4-3,3v114.2c0,1.7,1.4,3.1,3,3.1H828c1.7,0,3-1.4,3-3.1v-26.9
		C831.1,120.5,829.7,119.1,828,119.1 M1174,29.2c-37.1,0-65.8,27.8-65.8,62.7v0.3c0,34.9,28.3,62.4,65.5,62.4
		c37.1,0,65.8-27.8,65.8-62.7v-0.3C1239.5,56.7,1211.2,29.2,1174,29.2 M1199,92.3c0,14.1-9.6,26.8-24.9,26.8
		c-15.5,0-25.3-12.9-25.3-27.1v-0.3c0-14.1,9.6-26.8,24.9-26.8c15.5,0,25.3,12.9,25.3,27.2V92.3z M1340.9,114c-1-1.5-0.5-3.5,1-4.4
		c12.9-7.2,20.8-18.9,20.8-35.2v-0.3c0-12.4-3.8-21.3-11-28.5c-8.4-8.4-22-13.7-43.3-13.7h-55.7c-1.7,0-3,1.4-3,3v114.2
		c0,1.7,1.4,3.1,3,3.1h34.1c1.7,0,3.1-1.4,3.1-3.1v-31.3h8.6l21.8,33c0.6,0.9,1.5,1.4,2.5,1.4h38.5c2.4,0,3.9-2.7,2.5-4.8
		L1340.9,114z M1322.7,77.4c0,7.4-5.8,11.7-15.5,11.7h-17.4V65.5h17.5c9.3,0,15.3,3.8,15.3,11.5V77.4z M935.6,117.7h-53.5V34.9
		c0-1.7-1.4-3-3-3h-34.1c-1.7,0-3.1,1.4-3.1,3v114.2c0,1.7,1.4,3.1,3.1,3.1h90.6c1.7,0,3.1-1.4,3.1-3.1v-28.3
		C938.6,119.1,937.3,117.7,935.6,117.7"/>
	<path class="st1" d="M183.9,158.3c0,14.1-11.5,25.6-25.6,25.6H25.6C11.5,183.9,0,172.5,0,158.3V25.6C0,11.5,11.5,0,25.6,0h132.8
		c14.1,0,25.6,11.5,25.6,25.6V158.3z"/>
	<path class="st0" d="M66.3,66.5L66.3,66.5C66.1,66.3,66,66,66,65.7c0-0.6,0.5-1.1,1.1-1.1h4.1V31.7c0-1.4-1.1-2.5-2.5-2.5H31.7
		c-1.4,0-2.5,1.1-2.5,2.5v120.5c0,1.4,1.1,2.5,2.5,2.5h36.9c1.4,0,2.5-1.1,2.5-2.5v-32.9H67c-0.6,0-1.1-0.5-1.1-1.1
		c0-0.3,0.1-0.6,0.3-0.8v0l23.4-23.9c0.4-0.4,0.6-1,0.6-1.6s-0.2-1.1-0.6-1.6L66.3,66.5z M152.2,29.2h-36.8c-1.4,0-2.5,1.1-2.5,2.5
		v32.9h4.1c0.6,0,1.1,0.5,1.1,1.1c0,0.3-0.1,0.5-0.2,0.7l-23.6,24c-0.4,0.5-0.6,1-0.6,1.6c0,0.6,0.2,1.1,0.6,1.6l23.6,24
		c0.1,0.2,0.2,0.4,0.2,0.7c0,0.6-0.5,1.1-1.1,1.1h-4.1v32.9c0,1.4,1.1,2.5,2.5,2.5h36.8c1.4,0,2.5-1.1,2.5-2.5V31.7
		C154.6,30.4,153.5,29.2,152.2,29.2"/>
</g>
</svg>
